<?xml version="1.0" encoding="UTF-8" standalone="no"?>
<!-- Created with Inkscape (http://www.inkscape.org/) -->

<svg
   width="512"
   height="512"
   viewBox="0 0 135.46669 135.46665"
   version="1.1"
   id="svg8"
   inkscape:version="1.4 (86a8ad7, 2024-10-11)"
   sodipodi:docname="mto_icon.svg"
   inkscape:export-filename="mto_icon.png"
   inkscape:export-xdpi="95.688507"
   inkscape:export-ydpi="95.688507"
   xml:space="preserve"
   xmlns:inkscape="http://www.inkscape.org/namespaces/inkscape"
   xmlns:sodipodi="http://sodipodi.sourceforge.net/DTD/sodipodi-0.dtd"
   xmlns:xlink="http://www.w3.org/1999/xlink"
   xmlns="http://www.w3.org/2000/svg"
   xmlns:svg="http://www.w3.org/2000/svg"
   xmlns:rdf="http://www.w3.org/1999/02/22-rdf-syntax-ns#"
   xmlns:cc="http://creativecommons.org/ns#"
   xmlns:dc="http://purl.org/dc/elements/1.1/"><defs
     id="defs2"><linearGradient
       id="linearGradient10"
       inkscape:collect="always"
       inkscape:label="Use this one"><stop
         style="stop-color:#bbbbbb;stop-opacity:1;"
         offset="0"
         id="stop9" /><stop
         style="stop-color:#ffffff;stop-opacity:1;"
         offset="1"
         id="stop10" /></linearGradient><linearGradient
       id="linearGradient6"
       inkscape:collect="always"
       inkscape:label="Other one"><stop
         style="stop-color:#434343;stop-opacity:1;"
         offset="0"
         id="stop6" /><stop
         style="stop-color:#d3d3d3;stop-opacity:1;"
         offset="1"
         id="stop7" /></linearGradient><linearGradient
       id="linearGradient39"
       inkscape:collect="always"><stop
         style="stop-color:#ffffff;stop-opacity:1;"
         offset="0"
         id="stop39" /><stop
         style="stop-color:#000000;stop-opacity:0.13695653;"
         offset="1"
         id="stop40" /></linearGradient><linearGradient
       id="linearGradient44"
       inkscape:collect="always"><stop
         style="stop-color:#000000;stop-opacity:0;"
         offset="0"
         id="stop45" /><stop
         style="stop-color:#000000;stop-opacity:1;"
         offset="1"
         id="stop44" /></linearGradient><linearGradient
       id="linearGradient73"
       inkscape:collect="always"><stop
         style="stop-color:#1a1a1a;stop-opacity:1;"
         offset="0"
         id="stop73" /><stop
         style="stop-color:#4e4e4e;stop-opacity:1;"
         offset="1"
         id="stop74" /></linearGradient><linearGradient
       id="linearGradient70"
       inkscape:collect="always"><stop
         style="stop-color:#e4e4e4;stop-opacity:1;"
         offset="0"
         id="stop70" /><stop
         style="stop-color:#eeeeee;stop-opacity:1;"
         offset="1"
         id="stop71" /></linearGradient><linearGradient
       id="linearGradient52"
       inkscape:collect="always"><stop
         style="stop-color:#ff6060;stop-opacity:1;"
         offset="0"
         id="stop21" /><stop
         style="stop-color:#ff2020;stop-opacity:1;"
         offset="0.49776453"
         id="stop51" /><stop
         style="stop-color:#b10000;stop-opacity:1;"
         offset="1"
         id="stop52" /></linearGradient><linearGradient
       id="linearGradient49"
       inkscape:collect="always"><stop
         style="stop-color:#000000;stop-opacity:0;"
         offset="0"
         id="stop50" /><stop
         style="stop-color:#000000;stop-opacity:1;"
         offset="1"
         id="stop49" /></linearGradient><linearGradient
       id="linearGradient34"
       inkscape:collect="always"><stop
         style="stop-color:#ffffff;stop-opacity:1;"
         offset="0"
         id="stop34" /><stop
         style="stop-color:#b8b8b8;stop-opacity:1;"
         offset="1"
         id="stop35" /></linearGradient><linearGradient
       inkscape:collect="always"
       xlink:href="#linearGradient34"
       id="linearGradient35"
       x1="-54.981178"
       y1="-79.725716"
       x2="-48.245987"
       y2="-72.990524"
       gradientUnits="userSpaceOnUse"
       gradientTransform="rotate(45,9.4757067e-5,-3.925e-5)" /><linearGradient
       inkscape:collect="always"
       xlink:href="#linearGradient49"
       id="linearGradient50"
       x1="17.497028"
       y1="-94.096153"
       x2="17.497028"
       y2="-89.333656"
       gradientUnits="userSpaceOnUse"
       gradientTransform="translate(0,-0.36233243)" /><linearGradient
       inkscape:collect="always"
       xlink:href="#linearGradient52"
       id="linearGradient51"
       x1="19.613695"
       y1="-91.450325"
       x2="15.380361"
       y2="-87.216988"
       gradientUnits="userSpaceOnUse"
       gradientTransform="translate(0,-0.6269135)" /><clipPath
       clipPathUnits="userSpaceOnUse"
       id="clipPath42"><path
         id="path43"
         style="fill:none;fill-opacity:1;stroke:none;stroke-width:5.5989;stroke-linecap:round"
         d="m 22.259529,-89.431402 -4.7625,-4.7625 -4.7625,4.7625 4.7625,4.762499 z"
         sodipodi:nodetypes="ccccc" /></clipPath><linearGradient
       inkscape:collect="always"
       xlink:href="#linearGradient70"
       id="linearGradient71"
       x1="17.497145"
       y1="-85.68351"
       x2="17.497145"
       y2="-97.647324"
       gradientUnits="userSpaceOnUse"
       gradientTransform="matrix(1.9998538,0,0,1.9903955,-12.203887,96.710717)" /><linearGradient
       inkscape:collect="always"
       xlink:href="#linearGradient73"
       id="linearGradient74"
       x1="13.114867"
       y1="-88.491768"
       x2="22.259529"
       y2="-97.636429"
       gradientUnits="userSpaceOnUse" /><clipPath
       clipPathUnits="userSpaceOnUse"
       id="clipPath142"><path
         id="path142"
         style="opacity:1;fill:#000000;stroke:none;stroke-width:0.529015;stroke-linecap:butt;stroke-linejoin:round;stroke-dasharray:none"
         d="m 13.794143,-97.636398 -1.058066,1.057808 -10e-4,0.001 c -0.0102,4.457952 0.08905,7.670752 4.7622,9.788984 4.673791,-2.118525 4.771917,-5.332137 4.761685,-9.79105 l -0.001,0.001 -1.057808,-1.057807 h -0.528903 v 0.793743 h -0.793744 v -0.793742 h -1.057549 v 0.793744 H 18.02615 v -0.793744 h -0.528904 -0.528645 v 0.793744 h -0.793744 v -0.793744 H 15.11705 v 0.793744 h -0.793743 v -0.793744 z" /></clipPath><clipPath
       clipPathUnits="userSpaceOnUse"
       id="clipPath6"><path
         id="path7"
         style="opacity:1;fill:#000000;stroke:none;stroke-width:1.05804;stroke-linecap:butt;stroke-linejoin:round;stroke-dasharray:none"
         d="m 15.382144,-96.58722 -2.11615,2.115635 -0.002,0.002 c -0.0204,8.915969 0.178101,15.341624 9.524481,19.578124 9.347662,-4.237086 9.543916,-10.664365 9.523452,-19.582268 l -0.002,0.002 -2.115634,-2.115633 h -1.057805 v 1.587489 h -1.587501 v -1.587498 H 25.43386 v 1.587502 h -1.58763 v -1.587502 h -1.057817 -1.057299 v 1.587502 h -1.587501 v -1.587502 h -2.115632 v 1.587502 h -1.5875 v -1.587502 z" /></clipPath><linearGradient
       inkscape:collect="always"
       xlink:href="#linearGradient44"
       id="linearGradient45"
       x1="17.497244"
       y1="-91.251892"
       x2="17.497244"
       y2="-95.719963"
       gradientUnits="userSpaceOnUse" /><linearGradient
       inkscape:collect="always"
       xlink:href="#linearGradient44"
       id="linearGradient53"
       gradientUnits="userSpaceOnUse"
       x1="17.497244"
       y1="-91.251892"
       x2="17.497244"
       y2="-95.719963"
       gradientTransform="translate(-1.4585019e-4,-0.18575164)" /><linearGradient
       inkscape:collect="always"
       xlink:href="#linearGradient34"
       id="linearGradient1"
       gradientUnits="userSpaceOnUse"
       gradientTransform="rotate(45,9.4757067e-5,-3.925e-5)"
       x1="-54.981178"
       y1="-79.725716"
       x2="-48.245987"
       y2="-72.990524" /><linearGradient
       inkscape:collect="always"
       xlink:href="#linearGradient39"
       id="linearGradient40"
       x1="8.4999409"
       y1="-56.320446"
       x2="8.4999409"
       y2="-78.572319"
       gradientUnits="userSpaceOnUse"
       gradientTransform="translate(14.287988,-18.284453)" /><linearGradient
       inkscape:collect="always"
       xlink:href="#linearGradient10"
       id="linearGradient14"
       gradientUnits="userSpaceOnUse"
       x1="61.172832"
       y1="-78.971306"
       x2="61.172832"
       y2="-83.402702"
       gradientTransform="matrix(1.2917326,0,0,1.2917326,-13.447829,26.198249)" /><linearGradient
       inkscape:collect="always"
       xlink:href="#linearGradient6"
       id="linearGradient15"
       gradientUnits="userSpaceOnUse"
       gradientTransform="matrix(1.2917326,0,0,1.2917326,-13.447829,26.198249)"
       x1="61.676193"
       y1="-78.706726"
       x2="61.676193"
       y2="-83.667282" /></defs><sodipodi:namedview
     id="base"
     pagecolor="#ffffff"
     bordercolor="#666666"
     borderopacity="1.0"
     inkscape:pageopacity="0"
     inkscape:pageshadow="2"
     inkscape:zoom="0.9819393"
     inkscape:cx="-39.717323"
     inkscape:cy="410.92153"
     inkscape:document-units="px"
     inkscape:current-layer="layer1"
     showgrid="false"
     showborder="true"
     inkscape:object-nodes="true"
     inkscape:snap-smooth-nodes="false"
     inkscape:snap-intersection-paths="false"
     inkscape:window-width="2560"
     inkscape:window-height="1406"
     inkscape:window-x="2869"
     inkscape:window-y="513"
     inkscape:window-maximized="1"
     showguides="true"
     units="pt"
     fit-margin-top="0"
     fit-margin-left="0"
     fit-margin-right="0"
     fit-margin-bottom="0"
     inkscape:pagecheckerboard="false"
     inkscape:showpageshadow="2"
     inkscape:deskcolor="#ffffff"><inkscape:page
       x="0"
       y="0"
       width="135.46669"
       height="135.46664"
       id="page4"
       margin="0"
       bleed="0" /></sodipodi:namedview><metadata
     id="metadata5"><rdf:RDF><cc:Work
         rdf:about=""><dc:format>image/svg+xml</dc:format><dc:type
           rdf:resource="http://purl.org/dc/dcmitype/StillImage" /></cc:Work></rdf:RDF></metadata><g
     inkscape:label="Layer 1"
     inkscape:groupmode="layer"
     id="layer1"
     transform="translate(-11.407675,98.442426)"><circle
       style="fill:none;fill-opacity:1;stroke:#1a1a1a;stroke-width:1.29881;stroke-linecap:round;stroke-linejoin:bevel;stroke-miterlimit:4;stroke-dasharray:none"
       id="path16625"
       cx="8.6213627"
       cy="14.477282"
       r="0" /><circle
       style="fill:none;fill-opacity:1;stroke:#1a1a1a;stroke-width:1.29881;stroke-linecap:round;stroke-linejoin:bevel;stroke-miterlimit:4;stroke-dasharray:none"
       id="circle18759"
       cx="-18.004053"
       cy="14.477282"
       transform="scale(-1,1)"
       r="0" /><circle
       style="fill:none;fill-opacity:1;stroke:#1a1a1a;stroke-width:1.29881;stroke-linecap:round;stroke-linejoin:bevel;stroke-miterlimit:4;stroke-dasharray:none"
       id="circle18761-3"
       cx="8.6213627"
       cy="14.477282"
       r="0" /><circle
       style="fill:none;fill-opacity:1;stroke:#1a1a1a;stroke-width:1.29881;stroke-linecap:round;stroke-linejoin:bevel;stroke-miterlimit:4;stroke-dasharray:none"
       id="circle18819"
       cx="8.6213627"
       cy="14.477282"
       r="0" /><g
       id="g4082"
       transform="matrix(1.1151106,0,0,1.1151106,-3.9739945,9.3926756)"><g
         id="g4064"><g
           id="g4056" /></g></g><g
       id="g2"
       transform="matrix(5.2386171,0,0,5.2386171,-40.23581,418.24607)"><path
         id="path4"
         style="opacity:0.1;fill:none;stroke:#000000;stroke-width:3.70417;stroke-linecap:butt;stroke-linejoin:miter;stroke-dasharray:none"
         d="m 15.382661,-96.590319 -0.0021,0.0021 -2.117184,2.116666 -0.0021,0.0021 c -0.02018,8.86904 0.182686,15.262549 9.52655,19.477881 9.348167,-4.21727 9.546949,-10.61382 9.526551,-19.48925 l -0.0021,-0.0021 -2.117184,-2.107364 h -1.05885 v 1.5906 h -1.5875 v -1.5906 h -2.115116 v 1.5906 h -1.5875 v -1.5906 H 22.787893 21.73111 v 1.5906 h -1.5875 v -1.5906 h -2.115633 v 1.5906 h -1.5875 v -1.5906 z" /><path
         id="path3"
         style="opacity:0.3;fill:none;stroke:#000000;stroke-width:2.64583;stroke-linecap:butt;stroke-linejoin:miter;stroke-dasharray:none"
         d="m 15.382661,-96.590319 -0.0021,0.0021 -2.117184,2.116666 -0.0021,0.0021 c -0.02018,8.86904 0.182686,15.262549 9.52655,19.477881 9.348167,-4.21727 9.546949,-10.61382 9.526551,-19.48925 l -0.0021,-0.0021 -2.117184,-2.107364 h -1.05885 v 1.5906 h -1.5875 v -1.5906 h -2.115116 v 1.5906 h -1.5875 v -1.5906 H 22.787893 21.73111 v 1.5906 h -1.5875 v -1.5906 h -2.115633 v 1.5906 h -1.5875 v -1.5906 z" /><path
         id="path67"
         style="fill:none;stroke:url(#linearGradient71);stroke-width:2.1115;stroke-linecap:butt;stroke-linejoin:miter;stroke-dasharray:none"
         d="m 15.382661,-96.590319 -0.0021,0.0021 -2.117184,2.116666 -0.0021,0.0021 c -0.02018,8.86904 0.182686,15.262549 9.52655,19.477881 9.348167,-4.21727 9.546949,-10.61382 9.526551,-19.48925 l -0.0021,-0.0021 -2.117184,-2.107364 h -1.05885 v 1.5906 h -1.5875 v -1.5906 h -2.115116 v 1.5906 h -1.5875 v -1.5906 H 22.787893 21.73111 v 1.5906 h -1.5875 v -1.5906 h -2.115633 v 1.5906 h -1.5875 v -1.5906 z" /><g
         id="g55"
         clip-path="url(#clipPath142)"
         transform="matrix(2.0000171,0,0,2.0000171,-12.206378,98.687246)"><path
           id="rect3"
           style="fill:url(#linearGradient74);fill-opacity:1;stroke-width:5.98448;stroke-linecap:round"
           d="m 12.734529,-97.636428 h 9.525 v 7.146534 h -9.525 z"
           sodipodi:nodetypes="ccccc" /><path
           id="rect4"
           style="fill:url(#linearGradient51);fill-opacity:1;stroke:none;stroke-width:5.59889;stroke-linecap:round"
           d="m 22.259529,-89.431402 -4.7625,-4.7625 -4.7625,4.7625 4.7625,4.762499 z"
           sodipodi:nodetypes="ccccc" /><g
           id="g90"><path
             id="path1"
             style="fill:url(#linearGradient1);fill-opacity:1;stroke:#ffffff;stroke-width:0.529162;stroke-linecap:round;stroke-dasharray:none"
             d="m 17.497029,-95.252235 -5.291667,5.291667 0.529167,0.529167 4.7625,-4.7625 4.7625,4.7625 0.529167,-0.529167 z"
             sodipodi:nodetypes="ccccccc" /><path
             id="path8"
             style="fill:url(#linearGradient35);fill-opacity:1;stroke:none;stroke-width:5.59889;stroke-linecap:round"
             d="m 17.497029,-95.252235 -5.291667,5.291667 0.529167,0.529167 4.7625,-4.7625 4.7625,4.7625 0.529167,-0.529167 z"
             sodipodi:nodetypes="ccccccc" /><path
             id="path48"
             style="opacity:0.254839;fill:url(#linearGradient50);fill-opacity:1;stroke:none;stroke-width:5.59889;stroke-linecap:round"
             d="m 17.497029,-94.458487 -5.291667,5.291667 0.529167,0.529167 4.7625,-4.7625 4.7625,4.7625 0.529167,-0.529167 z"
             sodipodi:nodetypes="ccccccc" /><path
             style="opacity:0.318078;fill:none;stroke:#333333;stroke-width:0.132291;stroke-linecap:square;stroke-linejoin:miter;stroke-dasharray:none"
             d="m 13.707554,-90.031569 3.789475,-3.783013 3.788843,3.784684"
             id="path2" /><path
             style="opacity:0.262014;fill:none;stroke:url(#linearGradient45);stroke-width:0.132291;stroke-linecap:round;stroke-linejoin:miter;stroke-dasharray:none"
             d="m 13.189933,-91.318035 4.307166,-4.308374 4.307457,4.307458"
             id="path44" /><path
             style="opacity:0.17849;fill:none;stroke:url(#linearGradient53);stroke-width:0.132291;stroke-linecap:round;stroke-linejoin:miter;stroke-dasharray:none"
             d="m 13.189787,-91.503787 4.307166,-4.308374 4.307457,4.307458"
             id="path53" /></g></g><path
         id="path65"
         style="fill:#040404;fill-opacity:0.25098;stroke-width:1.00114"
         d="m 15.382212,-96.58728 -2.116666,2.12149 -0.0021,0.0021 c -0.0203,8.912565 0.179947,15.336584 9.524483,19.571987 9.346437,-4.236257 9.545394,-10.661779 9.525,-19.577167 l -0.0021,-0.0021 -2.11615,-2.11631 h -1.058334 v 1.591117 h -1.5875 v -1.591117 h -2.115116 v 1.591117 h -1.5875 v -1.591117 h -1.058333 -1.056783 v 1.591117 h -1.5875 V -96.58728 H 18.02798 v 1.591117 h -1.5875 v -1.591117 z m 0.219625,0.529336 h 0.310575 v 1.591636 h 2.6448 v -1.591636 h 1.058334 v 1.591636 h 2.644799 v -1.591636 h 0.5271 0.531234 v 1.591636 h 2.642732 v -1.591636 h 1.058334 v 1.591636 h 2.644799 v -1.591636 h 0.312126 l 1.802991,1.802957 c 0.0074,4.353548 -0.06193,8.070366 -1.210779,11.142483 -1.147999,3.069849 -3.363055,5.562847 -7.781437,7.618925 -4.416441,-2.05552 -6.631423,-4.54818 -7.77937,-7.616853 -1.148924,-3.071288 -1.21813,-6.786742 -1.210779,-11.138859 z" /><path
         id="path36"
         d="m 15.272109,-96.85677 -2.195215,2.199349 -0.07803,0.0801 v 0.109037 c -0.01016,4.458409 0.02885,8.321418 1.267623,11.632882 1.238771,3.311463 3.694458,6.041691 8.41189,8.179863 l 0.109554,0.05064 0.109554,-0.05064 c 4.718388,-2.138601 7.173223,-4.869111 8.41189,-8.181413 1.238668,-3.312303 1.277824,-7.177209 1.267622,-11.637016 v -0.109554 l -0.0801,-0.07803 -2.193148,-2.195215 h -1.431954 v 1.591634 h -1.058333 v -1.591634 h -2.6448 v 1.591634 h -1.058333 v -1.591634 h -1.3224 -1.3224 v 1.591634 h -1.058333 v -1.591634 h -2.6448 v 1.591634 h -1.058333 v -1.591634 z m 0.109554,0.269234 h 1.058333 v 1.5875 h 1.5875 v -1.5875 h 2.115633 v 1.5875 h 1.5875 v -1.5875 h 1.0573 1.057817 v 1.5875 h 1.587499 v -1.5875 h 2.115117 v 1.5875 h 1.5875 v -1.5875 h 1.057816 l 2.115633,2.115633 0.0021,-0.0021 c 0.02046,8.917903 -0.175777,15.345172 -9.52345,19.582267 -9.34638,-4.236497 -9.544883,-10.662153 -9.524483,-19.578133 l 0.0021,-0.0021 z"
         style="opacity:1;fill:url(#linearGradient40);fill-opacity:1" /></g><g
       id="g3"
       transform="matrix(1.0412907,0,0,1.0412907,-8.5441231,10.074742)"><path
         id="rect2"
         style="opacity:0.895881;fill:#000000;stroke-width:0.529167;stroke-linecap:square"
         d="M 63.001385,-14.221464 V 25.880858 H 138.88002 L 149.2556,15.505281 v -29.726745 z" /><g
         id="g1"
         transform="matrix(3.7610275,0,0,3.7610275,-67.303907,301.72331)"><text
           xml:space="preserve"
           style="font-weight:500;font-size:8.2959px;font-family:Oxanium;-inkscape-font-specification:'Oxanium Medium';text-align:start;writing-mode:lr-tb;direction:ltr;text-anchor:start;opacity:0.25;fill:none;stroke:url(#linearGradient15);stroke-width:1.36709;stroke-linecap:round;stroke-dasharray:none"
           x="36.755264"
           y="-75.811554"
           id="text15"><tspan
             sodipodi:role="line"
             id="tspan15"
             style="font-style:normal;font-variant:normal;font-weight:800;font-stretch:normal;font-family:Oxanium;-inkscape-font-specification:'Oxanium Ultra-Bold';fill:none;stroke:url(#linearGradient15);stroke-width:1.36709;stroke-dasharray:none"
             x="36.755264"
             y="-75.811554">MTO</tspan></text><text
           xml:space="preserve"
           style="font-weight:500;font-size:8.2959px;font-family:Oxanium;-inkscape-font-specification:'Oxanium Medium';text-align:start;writing-mode:lr-tb;direction:ltr;text-anchor:start;fill:url(#linearGradient14);stroke:none;stroke-width:2.07398;stroke-linecap:round;stroke-dasharray:none"
           x="36.755264"
           y="-75.811554"
           id="text5"><tspan
             sodipodi:role="line"
             id="tspan5"
             style="font-style:normal;font-variant:normal;font-weight:800;font-stretch:normal;font-family:Oxanium;-inkscape-font-specification:'Oxanium Ultra-Bold';fill:url(#linearGradient14);stroke:none;stroke-width:2.07398"
             x="36.755264"
             y="-75.811554">MTO</tspan></text></g></g></g></svg>
